<?xml version="1.0" standalone="no"?>
<!DOCTYPE svg PUBLIC "-//W3C//DTD SVG 20010904//EN"
 "http://www.w3.org/TR/2001/REC-SVG-20010904/DTD/svg10.dtd">
<svg version="1.0" xmlns="http://www.w3.org/2000/svg"
 width="700.000000pt" height="700.000000pt" viewBox="0 0 700.000000 700.000000"
 preserveAspectRatio="xMidYMid meet">
<metadata>
Created by potrace 1.11, written by Peter Selinger 2001-2013
</metadata>
<g transform="translate(0.000000,700.000000) scale(0.100000,-0.100000)"
fill="#000000" stroke="none">
<path d="M0 3500 l0 -3500 3500 0 3500 0 0 3500 0 3500 -3500 0 -3500 0 0
-3500z m2210 500 l0 -1160 370 0 370 0 0 1160 0 1160 550 0 550 0 0 -1160 0
-1160 370 0 370 0 0 1160 0 1160 550 0 550 0 0 -1160 0 -1160 -550 0 -550 0 0
-555 0 -555 -367 0 -368 0 -552 552 -553 553 0 -553 0 -552 -367 0 -368 0
-552 552 -553 553 0 1162 0 1163 550 0 550 0 0 -1160z"/>
</g>
</svg>
